<svg width="499" height="492" viewBox="0 0 499 492" fill="none" xmlns="http://www.w3.org/2000/svg">
<path d="M65.2387 491.522C92.9513 491.522 115.417 470.599 115.417 444.788C115.417 418.977 92.9513 398.053 65.2387 398.053C37.5261 398.053 15.0605 418.977 15.0605 444.788C15.0605 470.599 37.5261 491.522 65.2387 491.522Z" fill="#09091A"/>
<path d="M65.3035 397.994C78.6115 397.994 91.3746 402.918 100.785 411.682C110.195 420.447 115.482 432.334 115.482 444.728H129.827C129.3 429.109 122.268 414.294 110.219 403.419C98.1698 392.544 82.0499 386.463 65.2715 386.463C48.4932 386.463 32.3732 392.544 20.3242 403.419C8.27523 414.294 1.24292 429.109 0.71582 444.728H15.0615C15.0615 438.586 16.3616 432.504 18.8873 426.83C21.413 421.156 25.1146 416.002 29.7808 411.661C34.4471 407.321 39.9862 403.879 46.0815 401.534C52.1767 399.189 58.7086 397.986 65.3035 397.994Z" fill="black"/>
<path d="M340.55 419.964H110.126V454.762H340.55V419.964Z" fill="black"/>
<path d="M340.55 419.966L418.909 335.108L423.882 361.414L340.55 454.705V419.966Z" fill="black"/>
<path d="M417.127 308.384L362.358 25.5424C361.753 22.4075 362.2 19.1751 363.637 16.285C365.075 13.3949 367.433 10.9874 370.392 9.39022C378.69 4.58645 387.994 1.48883 397.681 0.304628C413.748 -0.764266 415.469 22.6326 399.402 24.0578C394.099 24.3022 388.786 23.7813 383.654 22.5138L431.473 308.621L417.127 308.384Z" fill="black"/>
<path d="M65.2404 476.26C83.9032 476.26 99.0324 462.169 99.0324 444.787C99.0324 427.405 83.9032 413.314 65.2404 413.314C46.5775 413.314 31.4482 427.405 31.4482 444.787C31.4482 462.169 46.5775 476.26 65.2404 476.26Z" fill="white"/>
<path d="M447.791 491.522C475.504 491.522 497.969 470.599 497.969 444.788C497.969 418.977 475.504 398.053 447.791 398.053C420.079 398.053 397.613 418.977 397.613 444.788C397.613 470.599 420.079 491.522 447.791 491.522Z" fill="#09091A"/>
<path d="M447.792 476.26C466.455 476.26 481.584 462.169 481.584 444.787C481.584 427.405 466.455 413.314 447.792 413.314C429.129 413.314 414 427.405 414 444.787C414 462.169 429.129 476.26 447.792 476.26Z" fill="white"/>
<path d="M64.7305 431.423H137.67V454.345H64.7305C63.072 454.401 61.4184 454.144 59.8693 453.589C58.3201 453.035 56.9074 452.194 55.7162 451.118C54.5249 450.042 53.5797 448.752 52.9375 447.327C52.2952 445.902 51.969 444.37 51.9787 442.824V442.824C51.9862 441.289 52.3249 439.77 52.9749 438.359C53.6248 436.947 54.5726 435.672 55.7621 434.608C56.9516 433.545 58.3584 432.715 59.899 432.168C61.4397 431.62 63.0827 431.367 64.7305 431.423V431.423Z" fill="#09091A"/>
<path d="M115.165 437.781H67.792V447.935H115.165V437.781Z" fill="#F3CFC6"/>
<path d="M498.033 406.959C489.635 397.307 478.234 390.314 465.396 386.94C452.559 383.566 438.915 383.977 426.338 388.116C413.761 392.254 402.868 399.919 395.156 410.055C387.444 420.192 383.291 432.303 383.268 444.727H397.613C398.077 432.613 403.57 421.139 412.935 412.721C422.301 404.304 434.808 399.6 447.823 399.6C460.838 399.6 473.346 404.304 482.711 412.721C492.077 421.139 497.57 432.613 498.033 444.727V406.959Z" fill="black"/>
<path d="M410.748 308.385H436.762L458.886 441.106C459.115 442.525 459.013 443.974 458.587 445.353C458.16 446.732 457.419 448.008 456.414 449.096C455.41 450.184 454.165 451.058 452.765 451.657C451.365 452.256 449.843 452.566 448.302 452.567C445.802 452.577 443.378 451.768 441.454 450.28C439.531 448.793 438.231 446.722 437.782 444.432L410.748 308.385Z" fill="black"/>
<path d="M447.793 444.963C450.434 444.963 452.574 442.969 452.574 440.51C452.574 438.05 450.434 436.056 447.793 436.056C445.152 436.056 443.011 438.05 443.011 440.51C443.011 442.969 445.152 444.963 447.793 444.963Z" fill="#F3CFC6"/>
</svg>
