<svg width="203" height="24" viewBox="0 0 203 24" fill="none" xmlns="http://www.w3.org/2000/svg">
<path d="M0.576971 23V1.18182H15.023V4.98508H5.1899V10.1839H14.0642V13.9872H5.1899V23H0.576971ZM38.1755 12.0909C38.1755 14.4702 37.7245 16.4943 36.8225 18.1634C35.9276 19.8324 34.7061 21.1072 33.1578 21.9879C31.6166 22.8615 29.8836 23.2983 27.9589 23.2983C26.02 23.2983 24.2799 22.858 22.7387 21.9773C21.1975 21.0966 19.9795 19.8217 19.0846 18.1527C18.1897 16.4837 17.7423 14.4631 17.7423 12.0909C17.7423 9.71165 18.1897 7.6875 19.0846 6.01847C19.9795 4.34943 21.1975 3.07812 22.7387 2.20455C24.2799 1.32386 26.02 0.883522 27.9589 0.883522C29.8836 0.883522 31.6166 1.32386 33.1578 2.20455C34.7061 3.07812 35.9276 4.34943 36.8225 6.01847C37.7245 7.6875 38.1755 9.71165 38.1755 12.0909ZM33.4987 12.0909C33.4987 10.5497 33.2678 9.25 32.8062 8.19176C32.3517 7.13352 31.7089 6.33097 30.8779 5.78409C30.047 5.23722 29.074 4.96378 27.9589 4.96378C26.8438 4.96378 25.8708 5.23722 25.0399 5.78409C24.2089 6.33097 23.5626 7.13352 23.1009 8.19176C22.6464 9.25 22.4191 10.5497 22.4191 12.0909C22.4191 13.6321 22.6464 14.9318 23.1009 15.9901C23.5626 17.0483 24.2089 17.8509 25.0399 18.3977C25.8708 18.9446 26.8438 19.218 27.9589 19.218C29.074 19.218 30.047 18.9446 30.8779 18.3977C31.7089 17.8509 32.3517 17.0483 32.8062 15.9901C33.2678 14.9318 33.4987 13.6321 33.4987 12.0909ZM41.5926 23V1.18182H50.2006C51.8483 1.18182 53.2545 1.47656 54.4193 2.06605C55.5912 2.64844 56.4825 3.47585 57.0933 4.5483C57.7112 5.61364 58.0202 6.86719 58.0202 8.30895C58.0202 9.75781 57.7077 11.0043 57.0827 12.0483C56.4577 13.0852 55.5521 13.8807 54.366 14.4347C53.1871 14.9886 51.7595 15.2656 50.0834 15.2656H44.3199V11.5582H49.3376C50.2183 11.5582 50.9498 11.4375 51.5322 11.196C52.1146 10.9545 52.5479 10.5923 52.8319 10.1094C53.1231 9.62642 53.2687 9.02628 53.2687 8.30895C53.2687 7.58452 53.1231 6.97372 52.8319 6.47656C52.5479 5.9794 52.1111 5.60298 51.5216 5.3473C50.9392 5.08452 50.2041 4.95312 49.3163 4.95312H46.2055V23H41.5926ZM53.3753 13.071L58.7979 23H53.7055L48.4001 13.071H53.3753ZM68.2235 23V1.18182H72.8364V19.1967H82.1901V23H68.2235ZM85.2449 23V1.18182H99.9466V4.98508H89.8579V10.1839H99.1903V13.9872H89.8579V19.1967H99.9893V23H85.2449ZM121.863 1.18182V23H117.879L108.387 9.26776H108.227V23H103.614V1.18182H107.662L117.08 14.9034H117.272V1.18182H121.863ZM133.409 23H125.675V1.18182H133.473C135.668 1.18182 137.557 1.61861 139.141 2.49219C140.724 3.35866 141.942 4.60511 142.795 6.23153C143.654 7.85795 144.084 9.80398 144.084 12.0696C144.084 14.3423 143.654 16.2955 142.795 17.929C141.942 19.5625 140.717 20.8161 139.119 21.6896C137.528 22.5632 135.625 23 133.409 23ZM130.288 19.0476H133.217C134.581 19.0476 135.728 18.8061 136.658 18.3232C137.596 17.8331 138.299 17.0767 138.768 16.054C139.244 15.0241 139.481 13.696 139.481 12.0696C139.481 10.4574 139.244 9.13991 138.768 8.11719C138.299 7.09446 137.599 6.34162 136.669 5.85866C135.739 5.37571 134.592 5.13423 133.228 5.13423H130.288V19.0476ZM147.501 23V1.18182H162.203V4.98508H152.114V10.1839H161.446V13.9872H152.114V19.1967H162.245V23H147.501ZM165.87 23V1.18182H174.478C176.126 1.18182 177.532 1.47656 178.697 2.06605C179.869 2.64844 180.76 3.47585 181.371 4.5483C181.989 5.61364 182.297 6.86719 182.297 8.30895C182.297 9.75781 181.985 11.0043 181.36 12.0483C180.735 13.0852 179.829 13.8807 178.643 14.4347C177.464 14.9886 176.037 15.2656 174.361 15.2656H168.597V11.5582H173.615C174.496 11.5582 175.227 11.4375 175.81 11.196C176.392 10.9545 176.825 10.5923 177.109 10.1094C177.4 9.62642 177.546 9.02628 177.546 8.30895C177.546 7.58452 177.4 6.97372 177.109 6.47656C176.825 5.9794 176.388 5.60298 175.799 5.3473C175.217 5.08452 174.481 4.95312 173.594 4.95312H170.483V23H165.87ZM177.653 13.071L183.075 23H177.983L172.677 13.071H177.653ZM197.393 7.45668C197.308 6.5973 196.942 5.92969 196.296 5.45383C195.65 4.97798 194.773 4.74006 193.665 4.74006C192.912 4.74006 192.276 4.84659 191.758 5.05966C191.239 5.26562 190.842 5.55327 190.565 5.92258C190.295 6.2919 190.16 6.71094 190.16 7.17969C190.146 7.57031 190.227 7.91122 190.405 8.20241C190.589 8.49361 190.842 8.74574 191.161 8.95881C191.481 9.16477 191.85 9.34588 192.269 9.50213C192.688 9.65128 193.136 9.77912 193.611 9.88565L195.572 10.3544C196.523 10.5675 197.397 10.8516 198.192 11.2067C198.988 11.5618 199.677 11.9986 200.259 12.517C200.842 13.0355 201.293 13.6463 201.612 14.3494C201.939 15.0526 202.106 15.8587 202.113 16.7678C202.106 18.103 201.765 19.2607 201.09 20.2408C200.422 21.2138 199.457 21.9702 198.192 22.5099C196.935 23.0426 195.419 23.3089 193.643 23.3089C191.882 23.3089 190.348 23.0391 189.041 22.4993C187.741 21.9595 186.726 21.1605 185.994 20.1023C185.27 19.0369 184.89 17.7195 184.854 16.1499H189.318C189.368 16.8814 189.577 17.4922 189.947 17.9822C190.323 18.4652 190.824 18.831 191.449 19.0795C192.081 19.321 192.795 19.4418 193.59 19.4418C194.371 19.4418 195.05 19.3281 195.625 19.1009C196.207 18.8736 196.658 18.5575 196.978 18.1527C197.297 17.7479 197.457 17.2827 197.457 16.7571C197.457 16.267 197.312 15.8551 197.021 15.5213C196.736 15.1875 196.317 14.9034 195.763 14.669C195.217 14.4347 194.545 14.2216 193.75 14.0298L191.374 13.4332C189.535 12.9858 188.082 12.2862 187.017 11.3345C185.952 10.3828 185.422 9.10085 185.43 7.48864C185.422 6.16761 185.774 5.01349 186.484 4.02628C187.202 3.03906 188.185 2.26847 189.435 1.71449C190.685 1.16051 192.106 0.883522 193.697 0.883522C195.316 0.883522 196.729 1.16051 197.937 1.71449C199.151 2.26847 200.096 3.03906 200.771 4.02628C201.445 5.01349 201.793 6.15696 201.815 7.45668H197.393Z" fill="black"/>
</svg>
