<svg width="664" height="137" viewBox="0 0 664 137" fill="none" xmlns="http://www.w3.org/2000/svg">
<path d="M45.7129 43.6295L118.278 27.3516L107.92 80.5515L45.7129 43.6295Z" fill="black"/>
<path d="M154.668 17.3085L181.342 81.3182L122.365 78.1983L154.668 17.3085Z" fill="black"/>
<path d="M240.647 25.8356C239.361 25.6636 238.063 25.5932 236.766 25.6252C232.443 25.6252 227.787 26.9984 224.35 30.484V26.7854H208.608V80.1456H224.35V53.5181C224.35 44.9605 229.561 40.6279 235.656 40.6279C237.355 40.6014 239.045 40.8557 240.652 41.3796L240.647 25.8356ZM302.117 61.0207C299.567 64.8247 294.8 66.4084 290.023 66.4084C288.361 66.4084 286.807 66.3031 285.366 65.7744L316.652 44.4443C313.216 34.4985 302.572 25.6252 288.708 25.6252C272.632 25.6252 259.662 38.0919 259.662 53.5181C259.662 68.7338 273.187 81.3058 290.038 81.3058C300.017 81.3058 309.884 76.9757 314.651 70.2123L302.117 61.0207ZM275.632 53.5181C275.632 46.0155 281.509 40.6279 288.713 40.6279C291.525 40.6257 294.256 41.5182 296.475 43.1638L276.087 57.0038C275.76 55.869 275.606 54.6949 275.632 53.5181V53.5181ZM395.416 53.5181C395.416 38.0919 384.773 25.6252 369.473 25.6252C364.374 25.6252 357.833 27.1036 354.727 30.484V26.7854H338.986V80.1456H354.727V53.5181C354.727 44.9605 361.159 40.6279 368.137 40.6279C374.568 40.6279 379.78 44.9605 379.78 53.5181V80.1456H395.411L395.416 53.5181ZM452.906 40.6279V26.7854H439.602V8.92846L423.855 19.8115V26.7854H415.441V40.6279H423.855V58.0613C423.855 71.9038 435.829 81.3058 452.57 81.3058V66.4084C445.363 66.4084 439.597 63.6519 439.597 57.6378V40.6279H452.906ZM514.695 61.0207C512.145 64.8247 507.378 66.4084 502.6 66.4084C500.936 66.4084 499.385 66.3031 497.944 65.7744L529.217 44.4443C525.78 34.511 515.137 25.6377 501.28 25.6377C485.205 25.6377 472.232 38.1044 472.232 53.5307C472.232 68.7464 485.76 81.3184 502.611 81.3184C512.586 81.3184 522.454 76.9882 527.221 70.2248L514.695 61.0207ZM488.197 53.5181C488.197 46.0155 494.073 40.6279 501.28 40.6279C504.093 40.6251 506.825 41.5176 509.045 43.1638L488.647 57.0038C488.319 55.869 488.168 54.6947 488.197 53.5181V53.5181ZM583.591 25.8356C582.306 25.6636 581.008 25.5932 579.71 25.6252C575.388 25.6252 570.731 26.9984 567.295 30.484V26.7854H551.55V80.1456H567.295V53.5181C567.295 44.9605 572.503 40.6279 578.601 40.6279C580.299 40.6015 581.989 40.8558 583.596 41.3796L583.591 25.8356ZM612.7 17.3808C618.022 17.3808 622.124 13.4716 622.124 8.82071C622.124 4.49054 618.022 0.578857 612.7 0.578857C607.823 0.578857 603.608 4.58827 603.608 8.82071C603.608 13.4741 607.823 17.3808 612.7 17.3808ZM620.683 26.7829H604.939V80.1456H620.683V26.7829ZM653.962 17.3808C659.284 17.3808 663.386 13.4716 663.386 8.82071C663.386 4.49054 659.284 0.578857 653.962 0.578857C649.085 0.578857 644.87 4.58827 644.87 8.82071C644.87 13.4741 649.085 17.3808 653.962 17.3808ZM661.945 26.7829H646.201V80.1456H661.945V26.7829Z" fill="black" fill-opacity="0.98"/>
</svg>
